{"asset":{"version":"2.0","generator":"Unity 6000.3.10f1 glTFast 6.14.1"},"nodes":[{"name":"Cube","mesh":0,"translation":[-0.01999998,0.029,0.7750001],"scale":[0.4,0.03,1.7]},{"name":"Cube (1)","mesh":0,"translation":[-0.04699993,-0.345,0.7750001],"scale":[0.4,0.03,1.7]},{"name":"Rack_leg","mesh":2,"translation":[0.159999847,-0.427000046,0.0009999275],"scale":[0.045,1.2,0.045]},{"name":"Rack_leg (2)","mesh":2,"translation":[-0.0190000534,-0.2750001,0],"rotation":[0,0,-0.7071068,0.7071068],"scale":[0.0449999943,0.400000066,0.045]},{"name":"Rack_leg (4)","mesh":2,"translation":[-0.0190000534,0.100999951,0],"rotation":[0,0,-0.7071068,0.7071068],"scale":[0.0449999943,0.400000066,0.045]},{"name":"Rack_leg (3)","mesh":2,"translation":[0,-0.376000047,0],"rotation":[0,0,-0.859054565,0.511884],"scale":[0.0300000031,0.39,0.03]},{"name":"Rack_leg (5)","mesh":2,"rotation":[0,0,-0.859054565,0.511884],"scale":[0.0300000031,0.39,0.03]},{"name":"Rack_support","children":[2,3,4,5,6],"translation":[0,-0.11,-0.03]},{"name":"Rack_leg","mesh":2,"translation":[0.159999847,-0.427000046,0.0009999275],"scale":[0.045,1.2,0.045]},{"name":"Rack_leg (2)","mesh":2,"translation":[-0.0190000534,-0.2750001,0],"rotation":[0,0,-0.7071068,0.7071068],"scale":[0.0449999943,0.400000066,0.045]},{"name":"Rack_leg (4)","mesh":2,"translation":[-0.0190000534,0.100999951,0],"rotation":[0,0,-0.7071068,0.7071068],"scale":[0.0449999943,0.400000066,0.045]},{"name":"Rack_leg (3)","mesh":2,"translation":[0,-0.376000047,0],"rotation":[0,0,-0.859054565,0.511884],"scale":[0.0300000031,0.39,0.03]},{"name":"Rack_leg (5)","mesh":2,"rotation":[0,0,-0.859054565,0.511884],"scale":[0.0300000031,0.39,0.03]},{"name":"Rack_support (1)","children":[8,9,10,11,12],"translation":[0,-0.11,1.595]},{"name":"Chemical Rack","children":[0,1,7,13],"translation":[-1.63196552,1.88400006,-0.379999876],"rotation":[0,0.7071068,0,0.7071067],"scale":[1,1,1.03946865]},{"name":"Cube","mesh":0,"translation":[-0.01999998,0.029,0.7750001],"scale":[0.4,0.03,1.7]},{"name":"Cube (1)","mesh":0,"translation":[-0.04699993,-0.345,0.7750001],"scale":[0.4,0.03,1.7]},{"name":"Rack_leg","mesh":2,"translation":[0.159999847,-0.427000046,0.0009999275],"scale":[0.045,1.2,0.045]},{"name":"Rack_leg (2)","mesh":2,"translation":[-0.0190000534,-0.2750001,0],"rotation":[0,0,-0.7071068,0.7071068],"scale":[0.0449999943,0.400000066,0.045]},{"name":"Rack_leg (4)","mesh":2,"translation":[-0.0190000534,0.100999951,0],"rotation":[0,0,-0.7071068,0.7071068],"scale":[0.0449999943,0.400000066,0.045]},{"name":"Rack_leg (3)","mesh":2,"translation":[0,-0.376000047,0],"rotation":[0,0,-0.859054565,0.511884],"scale":[0.0300000031,0.39,0.03]},{"name":"Rack_leg (5)","mesh":2,"rotation":[0,0,-0.859054565,0.511884],"scale":[0.0300000031,0.39,0.03]},{"name":"Rack_support","children":[17,18,19,20,21],"translation":[0,-0.11,-0.03]},{"name":"Rack_leg","mesh":2,"translation":[0.159999847,-0.427000046,0.0009999275],"scale":[0.045,1.2,0.045]},{"name":"Rack_leg (2)","mesh":2,"translation":[-0.0190000534,-0.2750001,0],"rotation":[0,0,-0.7071068,0.7071068],"scale":[0.0449999943,0.400000066,0.045]},{"name":"Rack_leg (4)","mesh":2,"translation":[-0.0190000534,0.100999951,0],"rotation":[0,0,-0.7071068,0.7071068],"scale":[0.0449999943,0.400000066,0.045]},{"name":"Rack_leg (3)","mesh":2,"translation":[0,-0.376000047,0],"rotation":[0,0,-0.859054565,0.511884],"scale":[0.0300000031,0.39,0.03]},{"name":"Rack_leg (5)","mesh":2,"rotation":[0,0,-0.859054565,0.511884],"scale":[0.0300000031,0.39,0.03]},{"name":"Rack_support (1)","children":[23,24,25,26,27],"translation":[0,-0.11,1.595]},{"name":"Chemical Rack (1)","children":[15,16,22,28],"translation":[1.321,1.918,-0.482],"rotation":[0,0.7071068,0,0.7071067],"scale":[1,1,1.03946865]},{"name":"Table_left_middle","children":[14,29],"mesh":1,"translation":[7.22,0.381,-0.07],"rotation":[0,-0.707106769,0,0.7071067],"scale":[0.962030053,1,0.99999994]}],"extensionsRequired":["KHR_texture_transform"],"extensionsUsed":["KHR_texture_transform"],"buffers":[{"uri":"Table_left_middle.bin","byteLength":819652}],"bufferViews":[{"buffer":0,"byteLength":72,"target":34963},{"buffer":0,"byteLength":239316,"byteOffset":72,"target":34963},{"buffer":0,"byteLength":347352,"byteOffset":239388,"byteStride":24,"target":34962},{"buffer":0,"byteLength":231568,"byteOffset":586740,"byteStride":16,"target":34962},{"buffer":0,"byteLength":1344,"byteOffset":818308,"byteStride":56,"target":34962}],"accessors":[{"bufferView":4,"componentType":5126,"count":24,"type":"VEC3","max":[0.5,0.5,0.5],"min":[-0.5,-0.5,-0.5]},{"bufferView":4,"componentType":5126,"count":24,"type":"VEC3","byteOffset":12},{"bufferView":4,"componentType":5126,"count":24,"type":"VEC4","byteOffset":24},{"bufferView":4,"componentType":5126,"count":24,"type":"VEC2","byteOffset":40},{"bufferView":4,"componentType":5126,"count":24,"type":"VEC2","byteOffset":48},{"bufferView":0,"componentType":5123,"count":36,"type":"SCALAR"},{"bufferView":2,"componentType":5126,"count":14473,"type":"VEC3","max":[3.92163062,1.53261375,0.51323247],"min":[-2.28983521,-0.09992576,-2.27115655]},{"bufferView":2,"componentType":5126,"count":14473,"type":"VEC3","byteOffset":12},{"bufferView":3,"componentType":5126,"count":14473,"type":"VEC2"},{"bufferView":3,"componentType":5126,"count":14473,"type":"VEC2","byteOffset":8},{"bufferView":1,"componentType":5125,"count":534,"type":"SCALAR"},{"bufferView":1,"componentType":5125,"count":3273,"type":"SCALAR","byteOffset":2136},{"bufferView":1,"componentType":5125,"count":55542,"type":"SCALAR","byteOffset":15228},{"bufferView":1,"componentType":5125,"count":480,"type":"SCALAR","byteOffset":237396}],"images":[{"name":"TableEdited.png","uri":"TableEdited.png","mimeType":"image/png"}],"materials":[{"name":"Glass","pbrMetallicRoughness":{"baseColorFactor":[0.238397658,1,1,0.235294119],"metallicFactor":0,"roughnessFactor":0.5},"alphaMode":"BLEND"},{"name":"Default-Material","pbrMetallicRoughness":{"metallicFactor":0,"roughnessFactor":0.5}},{"name":"Material.002","pbrMetallicRoughness":{"baseColorFactor":[0.03925392,0.03925392,0.03925392,1],"metallicFactor":0,"roughnessFactor":0.5},"doubleSided":true},{"name":"Gray white plastic","pbrMetallicRoughness":{"baseColorFactor":[0.873490632,0.8399198,0.775066555,1],"metallicFactor":0},"doubleSided":true},{"name":"Nickel metal-02","pbrMetallicRoughness":{"baseColorFactor":[0.6780125,0.6445609,0.605718434,1],"metallicRoughnessTexture":{"index":0,"texCoord":1,"extensions":{"KHR_texture_transform":{"offset":[0,-1],"scale":[2,2]}}}},"doubleSided":true},{"name":"Material.001","pbrMetallicRoughness":{"baseColorFactor":[0.03925392,0.03925392,0.03925392,1],"metallicFactor":0,"roughnessFactor":0.5},"doubleSided":true}],"meshes":[{"name":"Cube","primitives":[{"attributes":{"POSITION":0,"NORMAL":1,"TANGENT":2,"TEXCOORD_0":3,"TEXCOORD_1":4},"indices":5,"material":0}]},{"name":"Cube.001","primitives":[{"attributes":{"POSITION":6,"NORMAL":7,"TEXCOORD_0":8,"TEXCOORD_1":9},"indices":10,"material":2},{"attributes":{"POSITION":6,"NORMAL":7,"TEXCOORD_0":8,"TEXCOORD_1":9},"indices":11,"material":3},{"attributes":{"POSITION":6,"NORMAL":7,"TEXCOORD_0":8,"TEXCOORD_1":9},"indices":12,"material":4},{"attributes":{"POSITION":6,"NORMAL":7,"TEXCOORD_0":8,"TEXCOORD_1":9},"indices":13,"material":5}]},{"name":"Cube","primitives":[{"attributes":{"POSITION":0,"NORMAL":1,"TANGENT":2,"TEXCOORD_0":3,"TEXCOORD_1":4},"indices":5,"material":1}]}],"samplers":[{"minFilter":9987}],"scene":0,"scenes":[{"name":"Table_left_middle","nodes":[30]}],"textures":[{"source":0,"sampler":0}]}